<?xml version="1.0" encoding="UTF-8"?>
<!DOCTYPE svg PUBLIC "-//W3C//DTD SVG 1.1//EN" "http://www.w3.org/Graphics/SVG/1.1/DTD/svg11.dtd">
<svg xmlns="http://www.w3.org/2000/svg" version="1.1" width="722px" height="192px" style="shape-rendering:geometricPrecision; text-rendering:geometricPrecision; image-rendering:optimizeQuality; fill-rule:evenodd; clip-rule:evenodd" xmlns:xlink="http://www.w3.org/1999/xlink">
<g><path style="opacity:0.992" fill="#0bd0c6" d="M 64.5,25.5 C 62.3704,33.6893 61.3704,42.0227 61.5,50.5C 57.073,72.1602 52.7397,93.8269 48.5,115.5C 47.8333,115.5 47.5,115.833 47.5,116.5C 42.2238,123.103 35.5572,127.769 27.5,130.5C 27.3354,127.482 27.502,124.482 28,121.5C 34.6749,90.1379 41.3416,58.8046 48,27.5C 53.1973,25.5798 58.6973,24.9132 64.5,25.5 Z"/></g>
<g><path style="opacity:0.983" fill="#0ef8e9" d="M 64.5,25.5 C 67.2919,25.4521 69.1253,26.7854 70,29.5C 79.5383,46.5863 89.0383,63.5863 98.5,80.5C 99.4345,84.3728 100.934,88.0395 103,91.5C 104.011,92.3366 105.178,92.67 106.5,92.5C 110.57,100.305 114.903,107.971 119.5,115.5C 122.312,128.28 123.645,141.28 123.5,154.5C 121.215,153.043 119.382,151.043 118,148.5C 109.733,132.96 101.233,117.627 92.5,102.5C 92.2014,98.8945 91.0347,95.5612 89,92.5C 88.1841,91.1772 87.0174,90.5106 85.5,90.5C 77.6657,76.8966 69.6657,63.5633 61.5,50.5C 61.3704,42.0227 62.3704,33.6893 64.5,25.5 Z"/></g>
<g><path style="opacity:0.789" fill="#fefefe" d="M 200.5,63.5 C 210.788,63.2901 220.788,64.7901 230.5,68C 232.882,74.3547 234.882,80.8547 236.5,87.5C 235.5,87.8333 234.5,88.1667 233.5,88.5C 222.879,84.0075 211.879,82.8408 200.5,85C 197.619,86.2506 195.786,88.4173 195,91.5C 192.47,104.04 193.137,116.374 197,128.5C 200.788,132.926 205.622,134.592 211.5,133.5C 214.5,133.333 217.5,133.167 220.5,133C 225.79,131.179 231.123,129.679 236.5,128.5C 235.658,135.246 234.491,141.913 233,148.5C 214.112,157.174 195.612,156.34 177.5,146C 170.094,139.023 165.428,130.523 163.5,120.5C 159.929,104.827 162.762,90.4939 172,77.5C 179.814,69.2907 189.314,64.624 200.5,63.5 Z"/></g>
<g><path style="opacity:0.826" fill="#fefefe" d="M 442.5,65.5 C 451.839,65.3335 461.173,65.5002 470.5,66C 471,66.5 471.5,67 472,67.5C 472.818,77.4107 472.651,87.2441 471.5,97C 477.083,97.1911 482.583,97.6911 488,98.5C 489.476,87.663 489.976,76.663 489.5,65.5C 499.167,65.5 508.833,65.5 518.5,65.5C 518.5,94.1667 518.5,122.833 518.5,151.5C 508.833,151.5 499.167,151.5 489.5,151.5C 489.5,139.833 489.5,128.167 489.5,116.5C 483.463,116.171 477.463,116.504 471.5,117.5C 472.825,128.697 472.825,139.863 471.5,151C 461.506,151.5 451.506,151.666 441.5,151.5C 441.175,122.76 441.509,94.0928 442.5,65.5 Z"/></g>
<g><path style="opacity:0.958" fill="#0aaea9" d="M 132.5,68.5 C 130.226,73.6716 126.226,77.0049 120.5,78.5C 119.05,79.8498 118.383,81.5165 118.5,83.5C 117.833,83.5 117.5,83.8333 117.5,84.5C 113.548,86.787 109.881,89.4537 106.5,92.5C 105.178,92.67 104.011,92.3366 103,91.5C 100.934,88.0395 99.4345,84.3728 98.5,80.5C 99.1499,80.8039 99.8165,81.1373 100.5,81.5C 105.905,77.7311 111.238,73.8977 116.5,70C 121.736,68.661 127.07,68.161 132.5,68.5 Z"/></g>
<g><path style="opacity:0.982" fill="#0a7c72" d="M 132.5,68.5 C 133.117,68.6107 133.617,68.944 134,69.5C 135.441,94.3245 136.607,119.158 137.5,144C 137.456,145.764 137.122,147.431 136.5,149C 132.319,151.43 127.986,153.264 123.5,154.5C 123.645,141.28 122.312,128.28 119.5,115.5C 119.614,105.108 118.948,94.7742 117.5,84.5C 118.167,84.5 118.5,84.1667 118.5,83.5C 118.383,81.5165 119.05,79.8498 120.5,78.5C 126.226,77.0049 130.226,73.6716 132.5,68.5 Z"/></g>
<g><path style="opacity:0.805" fill="#fefefe" d="M 285.5,86.5 C 318.579,84.4189 332.079,99.7522 326,132.5C 323.274,142.894 316.774,149.727 306.5,153C 288.952,157.901 274.119,153.735 262,140.5C 256.002,127.488 256.002,114.488 262,101.5C 267.921,93.3012 275.754,88.3012 285.5,86.5 Z M 290.5,103.5 C 295.976,102.916 299.643,105.083 301.5,110C 301.595,117.296 301.428,124.796 301,132.5C 296.093,138.743 290.76,139.076 285,133.5C 281.733,124.385 281.9,115.385 285.5,106.5C 287.145,105.304 288.811,104.304 290.5,103.5 Z"/></g>
<g><path style="opacity:0.799" fill="#fefefe" d="M 375.5,86.5 C 384.769,85.8823 393.769,87.049 402.5,90C 413.462,96.8094 418.795,106.809 418.5,120C 417.558,142.442 405.892,153.942 383.5,154.5C 356.589,153.407 345.089,139.407 349,112.5C 352.424,98.2421 361.257,89.5754 375.5,86.5 Z M 381.5,103.5 C 384.674,103.664 387.507,104.664 390,106.5C 392.978,115.368 393.311,124.368 391,133.5C 385.318,138.998 379.985,138.665 375,132.5C 374.333,124.5 374.333,116.5 375,108.5C 376.272,105.508 378.438,103.841 381.5,103.5 Z"/></g>
<g><path style="opacity:0.774" fill="#fefefe" d="M 564.5,87.5 C 594.538,84.3666 607.205,97.5332 602.5,127C 596.939,128.121 591.273,128.621 585.5,128.5C 580.118,128.477 574.784,128.144 569.5,127.5C 568.851,131.698 570.518,134.865 574.5,137C 577.833,137.667 581.167,137.667 584.5,137C 590.63,135.098 596.63,132.931 602.5,130.5C 602.364,136.649 601.364,142.649 599.5,148.5C 588.049,153.747 576.049,155.247 563.5,153C 549.008,147.373 541.674,136.707 541.5,121C 541.423,104.27 549.09,93.1032 564.5,87.5 Z M 573.5,104.5 C 576.079,105.228 578.746,105.728 581.5,106C 583.02,107.885 584.02,110.051 584.5,112.5C 579.208,113.495 573.875,113.828 568.5,113.5C 569.232,109.964 570.898,106.964 573.5,104.5 Z"/></g>
<g><path style="opacity:0.799" fill="#fefefe" d="M 623.5,88.5 C 633.467,89.2583 643.467,89.7583 653.5,90C 655.876,93.9187 658.376,97.752 661,101.5C 662.977,97.6973 665.143,94.0306 667.5,90.5C 675.159,89.6488 682.825,88.9822 690.5,88.5C 690.313,90.5643 689.813,92.5643 689,94.5C 683.268,102.722 677.768,111.055 672.5,119.5C 678.137,128.303 683.971,136.97 690,145.5C 690.814,147.902 690.647,150.235 689.5,152.5C 680.548,151.694 671.548,151.194 662.5,151C 658.712,146.594 655.545,141.761 653,136.5C 650.042,140.916 647.208,145.416 644.5,150C 636.915,151.242 629.248,152.075 621.5,152.5C 626.644,140.5 633.311,129.334 641.5,119C 635.675,110.506 629.842,102.006 624,93.5C 623.506,91.8659 623.34,90.1992 623.5,88.5 Z"/></g>
<g><path style="opacity:0.992" fill="#0aaea9" d="M 85.5,90.5 C 87.0174,90.5106 88.1841,91.1772 89,92.5C 91.0347,95.5612 92.2014,98.8945 92.5,102.5C 75.7104,114.783 59.0437,127.283 42.5,140C 41.5,140.667 40.5,140.667 39.5,140C 35.7586,137.481 31.7586,135.647 27.5,134.5C 27.5,133.167 27.5,131.833 27.5,130.5C 35.5572,127.769 42.2238,123.103 47.5,116.5C 48.1667,116.5 48.5,116.167 48.5,115.5C 61.0144,107.411 73.3478,99.078 85.5,90.5 Z"/></g>
</svg>
