<?xml version="1.0" encoding="UTF-8"?>
<!DOCTYPE svg PUBLIC "-//W3C//DTD SVG 1.1//EN" "http://www.w3.org/Graphics/SVG/1.1/DTD/svg11.dtd">
<svg xmlns="http://www.w3.org/2000/svg" version="1.1" width="3930px" height="708px" style="shape-rendering:geometricPrecision; text-rendering:geometricPrecision; image-rendering:optimizeQuality; fill-rule:evenodd; clip-rule:evenodd" xmlns:xlink="http://www.w3.org/1999/xlink">
<g><path style="opacity:0.999" fill="#0ef9ea" d="M 206.5,-0.5 C 207.167,-0.5 207.833,-0.5 208.5,-0.5C 208.351,0.551975 208.517,1.55198 209,2.5C 270.278,108.25 331.445,213.917 392.5,319.5C 392.079,322.657 393.245,324.99 396,326.5C 402.767,337.598 409.1,348.931 415,360.5C 416.379,362.715 418.213,364.381 420.5,365.5C 452.078,421.854 484.411,477.854 517.5,533.5C 519.087,538.697 519.754,544.031 519.5,549.5C 521.871,600.164 524.205,650.831 526.5,701.5C 526.489,703.045 526.156,704.378 525.5,705.5C 469.231,607.958 413.231,510.292 357.5,412.5C 357.662,410.473 357.495,408.473 357,406.5C 348.96,392.252 340.793,378.085 332.5,364C 331.552,363.517 330.552,363.351 329.5,363.5C 280.935,279.023 232.935,194.357 185.5,109.5C 184.988,103.201 185.488,96.8681 187,90.5C 190.664,72.5083 194.33,54.5083 198,36.5C 202.073,24.5366 204.907,12.2033 206.5,-0.5 Z"/></g>
<g><path style="opacity:0.999" fill="#0ad1c7" d="M 122.5,-0.5 C 150.5,-0.5 178.5,-0.5 206.5,-0.5C 204.907,12.2033 202.073,24.5366 198,36.5C 194.33,54.5083 190.664,72.5083 187,90.5C 185.488,96.8681 184.988,103.201 185.5,109.5C 155.267,245.659 125.601,381.993 96.5,518.5C 94.7917,520.718 92.7917,522.884 90.5,525C 62.7703,543.727 34.7703,562.06 6.5,580C 4.96317,581.11 4.2965,582.61 4.5,584.5C 2.82124,584.285 1.82124,584.952 1.5,586.5C 0.833333,586.5 0.166667,586.5 -0.5,586.5C -0.5,583.833 -0.5,581.167 -0.5,578.5C 0.117425,578.389 0.617425,578.056 1,577.5C 41.5989,384.924 82.0989,192.257 122.5,-0.5 Z"/></g>
<g><path style="opacity:0.98" fill="#343434" d="M 983.5,145.5 C 1002.17,145.333 1020.84,145.5 1039.5,146C 1048.67,147.307 1058.01,147.973 1067.5,148C 1077.46,149.168 1087.46,150.502 1097.5,152C 1107.31,154.578 1117.31,156.578 1127.5,158C 1135.06,160.303 1142.73,162.47 1150.5,164.5C 1153.19,168.867 1155.02,173.534 1156,178.5C 1159,191.5 1162,204.5 1165,217.5C 1170.12,236.307 1175.29,254.973 1180.5,273.5C 1178.24,274.647 1175.9,274.814 1173.5,274C 1129.34,251.317 1082.51,239.484 1033,238.5C 1032.25,239.126 1031.42,239.626 1030.5,240C 1008.96,239.27 988.627,243.603 969.5,253C 952.86,263.459 941.36,277.959 935,296.5C 932.08,305.106 929.414,313.773 927,322.5C 924.346,337.089 922.346,351.756 921,366.5C 920.333,384.167 920.333,401.833 921,419.5C 922.309,429.34 922.975,439.34 923,449.5C 925.56,475.763 932.893,500.763 945,524.5C 959.291,547.812 979.791,561.979 1006.5,567C 1052.86,571.078 1097.86,565.745 1141.5,551C 1153.83,545.827 1165.83,539.994 1177.5,533.5C 1178.68,534.515 1179.68,535.681 1180.5,537C 1174.99,571.061 1170.16,605.227 1166,639.5C 1164.39,640.147 1162.89,640.98 1161.5,642C 1140.95,647.885 1120.28,653.219 1099.5,658C 1080.6,659.921 1061.94,661.921 1043.5,664C 1023.83,664.667 1004.17,664.667 984.5,664C 971.961,662.495 959.294,661.162 946.5,660C 918.509,655.595 891.842,646.928 866.5,634C 820.928,607.129 791.428,568.296 778,517.5C 762.504,456.795 759.171,395.129 768,332.5C 784.35,227.817 844.85,166.983 949.5,150C 961.104,148.64 972.437,147.14 983.5,145.5 Z"/></g>
<g><path style="opacity:0.004" fill="#000000" d="M 2443.5,155.5 C 2444.83,156.167 2444.83,156.167 2443.5,155.5 Z"/></g>
<g><path style="opacity:0.004" fill="#000000" d="M 2727.5,155.5 C 2728.83,156.167 2728.83,156.167 2727.5,155.5 Z"/></g>
<g><path style="opacity:0.979" fill="#343434" d="M 2445.5,157.5 C 2498.5,157.5 2551.5,157.5 2604.5,157.5C 2604.5,222.167 2604.5,286.833 2604.5,351.5C 2646.17,351.5 2687.83,351.5 2729.5,351.5C 2729.5,286.833 2729.5,222.167 2729.5,157.5C 2782.5,157.5 2835.5,157.5 2888.5,157.5C 2888.83,321.835 2888.5,486.168 2887.5,650.5C 2834.98,652.49 2782.32,653.156 2729.5,652.5C 2729.5,581.167 2729.5,509.833 2729.5,438.5C 2687.83,438.5 2646.17,438.5 2604.5,438.5C 2604.67,509.501 2604.5,580.501 2604,651.5C 2551.24,652.497 2498.4,652.831 2445.5,652.5C 2445.5,487.5 2445.5,322.5 2445.5,157.5 Z"/></g>
<g><path style="opacity:0.004" fill="#000000" d="M 1153.5,163.5 C 1154.83,164.167 1154.83,164.167 1153.5,163.5 Z"/></g>
<g><path style="opacity:0.004" fill="#000000" d="M 827.5,201.5 C 828.833,202.167 828.833,202.167 827.5,201.5 Z"/></g>
<g><path style="opacity:0.004" fill="#000000" d="M 825.5,203.5 C 826.833,204.167 826.833,204.167 825.5,203.5 Z"/></g>
<g><path style="opacity:0.004" fill="#000000" d="M 823.5,205.5 C 824.833,206.167 824.833,206.167 823.5,205.5 Z"/></g>
<g><path style="opacity:0.004" fill="#000000" d="M 821.5,207.5 C 822.833,208.167 822.833,208.167 821.5,207.5 Z"/></g>
<g><path style="opacity:0.004" fill="#000000" d="M 819.5,209.5 C 820.833,210.167 820.833,210.167 819.5,209.5 Z"/></g>
<g><path style="opacity:0.004" fill="#000000" d="M 809.5,221.5 C 810.833,222.167 810.833,222.167 809.5,221.5 Z"/></g>
<g><path style="opacity:0.004" fill="#000000" d="M 803.5,229.5 C 804.833,230.167 804.833,230.167 803.5,229.5 Z"/></g>
<g><path style="opacity:0.004" fill="#000000" d="M 799.5,235.5 C 800.833,236.167 800.833,236.167 799.5,235.5 Z"/></g>
<g><path style="opacity:0.997" fill="#09aea9" d="M 576.5,247.5 C 571.245,251.572 565.578,255.072 559.5,258C 542.679,270.91 525.679,283.577 508.5,296C 507.361,297.78 506.361,299.614 505.5,301.5C 476.853,322.488 448.52,343.822 420.5,365.5C 418.213,364.381 416.379,362.715 415,360.5C 409.1,348.931 402.767,337.598 396,326.5C 393.245,324.99 392.079,322.657 392.5,319.5C 429.871,295.753 466.871,271.253 503.5,246C 515.667,245.833 527.833,245.667 540,245.5C 552.519,245.501 564.686,246.168 576.5,247.5 Z"/></g>
<g><path style="opacity:0.998" fill="#097c72" d="M 576.5,247.5 C 581.586,359.354 586.586,471.354 591.5,583.5C 590.053,585.617 590.22,587.617 592,589.5C 592.179,602.199 592.845,614.865 594,627.5C 594.667,641.833 594.667,656.167 594,670.5C 572.924,683.096 551.757,695.429 530.5,707.5C 529.833,707.5 529.167,707.5 528.5,707.5C 526.478,654.635 523.478,601.968 519.5,549.5C 519.754,544.031 519.087,538.697 517.5,533.5C 513.393,455.995 509.393,378.661 505.5,301.5C 506.361,299.614 507.361,297.78 508.5,296C 525.679,283.577 542.679,270.91 559.5,258C 565.578,255.072 571.245,251.572 576.5,247.5 Z"/></g>
<g><path style="opacity:0.981" fill="#343434" d="M 1496.5,283.5 C 1522.51,283.167 1548.51,283.5 1574.5,284.5C 1670.23,292.06 1722.06,343.394 1730,438.5C 1731.17,466.944 1730.5,495.277 1728,523.5C 1724.51,545.614 1717.84,566.948 1708,587.5C 1691.22,616.948 1667.06,637.781 1635.5,650C 1615.07,656.762 1594.07,661.429 1572.5,664C 1541.12,665.079 1509.79,664.412 1478.5,662C 1392.22,648.391 1344.72,598.224 1336,511.5C 1335.33,488.167 1335.33,464.833 1336,441.5C 1347.96,347.208 1401.12,295.041 1495.5,285C 1496.06,284.617 1496.39,284.117 1496.5,283.5 Z M 1518.5,362.5 C 1529.51,362.333 1540.51,362.5 1551.5,363C 1567.74,365.396 1579.74,373.896 1587.5,388.5C 1591.58,398.965 1594.75,409.632 1597,420.5C 1598.72,439.038 1600.22,457.538 1601.5,476C 1600.24,495.795 1598.74,515.628 1597,535.5C 1586.22,575.881 1560.06,592.381 1518.5,585C 1497.56,581.108 1483.06,569.274 1475,549.5C 1472.82,542.193 1470.98,534.86 1469.5,527.5C 1467.21,507.44 1465.54,487.273 1464.5,467C 1465.59,449.471 1467.09,431.971 1469,414.5C 1472.6,398.967 1480.1,385.634 1491.5,374.5C 1499.3,368.874 1507.96,365.374 1517.5,364C 1518.06,363.617 1518.39,363.117 1518.5,362.5 Z"/></g>
<g><path style="opacity:0.981" fill="#343434" d="M 2043.5,283.5 C 2069.5,283.333 2095.5,283.5 2121.5,284C 2146.24,286.675 2170.24,292.675 2193.5,302C 2237.08,323.256 2263.25,357.756 2272,405.5C 2281.19,453.301 2280.53,500.968 2270,548.5C 2253.98,608.183 2215.82,644.683 2155.5,658C 2143.32,659.874 2131.32,661.874 2119.5,664C 2093.17,664.667 2066.83,664.667 2040.5,664C 2011.68,661.363 1984.34,653.53 1958.5,640.5C 1922.87,619.713 1900.03,589.38 1890,549.5C 1878.7,501.165 1878.7,452.832 1890,404.5C 1907.1,346.73 1944.6,309.23 2002.5,292C 2016.25,288.838 2029.92,286.005 2043.5,283.5 Z M 2064.5,362.5 C 2086.26,359.057 2106.26,363.057 2124.5,374.5C 2130.13,380.284 2134.29,386.951 2137,394.5C 2144.9,421.749 2148.4,449.582 2147.5,478C 2147.77,498.741 2146.27,519.241 2143,539.5C 2138.59,555.92 2129.42,569.087 2115.5,579C 2109.49,581.022 2103.49,583.022 2097.5,585C 2054.77,592.078 2027.93,574.912 2017,533.5C 2015.47,520.85 2014.13,508.183 2013,495.5C 2011.33,466.852 2012.66,438.519 2017,410.5C 2021.45,394.454 2030.28,381.287 2043.5,371C 2049.76,367.291 2056.42,364.958 2063.5,364C 2064.06,363.617 2064.39,363.117 2064.5,362.5 Z"/></g>
<g><path style="opacity:0.976" fill="#343434" d="M 3202.5,287.5 C 3232.06,286.342 3261.39,288.009 3290.5,292.5C 3340.51,301.677 3373.68,330.344 3390,378.5C 3400.11,416.531 3403.44,455.531 3400,495.5C 3398.57,499.635 3398.07,503.968 3398.5,508.5C 3328.5,508.5 3258.5,508.5 3188.5,508.5C 3189.79,567.943 3220.13,594.11 3279.5,587C 3318.24,583.139 3354.24,570.972 3387.5,550.5C 3389.05,549.548 3390.71,549.215 3392.5,549.5C 3392.67,552.85 3392.5,556.183 3392,559.5C 3387.04,585.055 3382.2,610.722 3377.5,636.5C 3371.38,639.451 3365.05,641.951 3358.5,644C 3310.04,658.864 3260.38,664.864 3209.5,662C 3175.34,661.247 3143.67,651.914 3114.5,634C 3089.04,614.578 3071.54,589.744 3062,559.5C 3048.71,507.059 3048.05,454.393 3060,401.5C 3074.72,345.116 3110.22,309.282 3166.5,294C 3178.01,291.434 3189.67,289.767 3201.5,289C 3202.06,288.617 3202.39,288.117 3202.5,287.5 Z M 3240.5,368.5 C 3252.48,368.888 3264.15,371.055 3275.5,375C 3283.93,379.098 3290.43,385.265 3295,393.5C 3296.72,398.608 3298.72,403.608 3301,408.5C 3302.64,415.789 3303.97,423.123 3305,430.5C 3305.5,434.821 3305.67,439.154 3305.5,443.5C 3266.5,443.5 3227.5,443.5 3188.5,443.5C 3188.59,428.575 3191.26,414.241 3196.5,400.5C 3202.41,387.76 3211.74,378.593 3224.5,373C 3230.05,371.578 3235.38,370.078 3240.5,368.5 Z"/></g>
<g><path style="opacity:0.004" fill="#000000" d="M 3539.5,295.5 C 3540.83,296.167 3540.83,296.167 3539.5,295.5 Z"/></g>
<g><path style="opacity:0.004" fill="#000000" d="M 3921.5,295.5 C 3922.83,296.167 3922.83,296.167 3921.5,295.5 Z"/></g>
<g><path style="opacity:0.976" fill="#343434" d="M 3929.5,647.5 C 3929.5,649.167 3929.5,650.833 3929.5,652.5C 3875.5,652.833 3821.5,652.5 3767.5,651.5C 3747.59,619.35 3727.42,587.35 3707,555.5C 3687.37,586.628 3667.54,617.628 3647.5,648.5C 3646.57,649.689 3646.24,651.022 3646.5,652.5C 3608.17,652.5 3569.83,652.5 3531.5,652.5C 3531.3,650.011 3531.8,647.677 3533,645.5C 3571.3,585.068 3609.46,524.568 3647.5,464C 3613,411.167 3578.5,358.333 3544,305.5C 3542.39,303.061 3541.56,300.394 3541.5,297.5C 3595.17,297.333 3648.83,297.5 3702.5,298C 3720,324.508 3737.5,351.008 3755,377.5C 3771.1,350.532 3787.93,324.032 3805.5,298C 3843.83,297.5 3882.17,297.333 3920.5,297.5C 3920.44,300.394 3919.61,303.061 3918,305.5C 3882.34,359.483 3847.17,413.817 3812.5,468.5C 3851.08,528.538 3890.08,588.205 3929.5,647.5 Z"/></g>
<g><path style="opacity:0.004" fill="#000000" d="M 3539.5,303.5 C 3540.83,304.167 3540.83,304.167 3539.5,303.5 Z"/></g>
<g><path style="opacity:0.004" fill="#000000" d="M 3797.5,303.5 C 3798.83,304.167 3798.83,304.167 3797.5,303.5 Z"/></g>
<g><path style="opacity:0.004" fill="#000000" d="M 2209.5,307.5 C 2210.83,308.167 2210.83,308.167 2209.5,307.5 Z"/></g>
<g><path style="opacity:0.004" fill="#000000" d="M 3339.5,307.5 C 3340.83,308.167 3340.83,308.167 3339.5,307.5 Z"/></g>
<g><path style="opacity:0.004" fill="#000000" d="M 1665.5,309.5 C 1666.83,310.167 1666.83,310.167 1665.5,309.5 Z"/></g>
<g><path style="opacity:0.004" fill="#000000" d="M 3121.5,309.5 C 3122.83,310.167 3122.83,310.167 3121.5,309.5 Z"/></g>
<g><path style="opacity:0.004" fill="#000000" d="M 3345.5,311.5 C 3346.83,312.167 3346.83,312.167 3345.5,311.5 Z"/></g>
<g><path style="opacity:0.004" fill="#000000" d="M 1671.5,313.5 C 1672.83,314.167 1672.83,314.167 1671.5,313.5 Z"/></g>
<g><path style="opacity:0.004" fill="#000000" d="M 3717.5,315.5 C 3718.83,316.167 3718.83,316.167 3717.5,315.5 Z"/></g>
<g><path style="opacity:0.004" fill="#000000" d="M 3913.5,315.5 C 3914.83,316.167 3914.83,316.167 3913.5,315.5 Z"/></g>
<g><path style="opacity:0.004" fill="#000000" d="M 3109.5,317.5 C 3110.83,318.167 3110.83,318.167 3109.5,317.5 Z"/></g>
<g><path style="opacity:0.004" fill="#000000" d="M 1393.5,319.5 C 1394.83,320.167 1394.83,320.167 1393.5,319.5 Z"/></g>
<g><path style="opacity:0.004" fill="#000000" d="M 3355.5,319.5 C 3356.83,320.167 3356.83,320.167 3355.5,319.5 Z"/></g>
<g><path style="opacity:0.004" fill="#000000" d="M 1681.5,321.5 C 1682.83,322.167 1682.83,322.167 1681.5,321.5 Z"/></g>
<g><path style="opacity:0.004" fill="#000000" d="M 3357.5,321.5 C 3358.83,322.167 3358.83,322.167 3357.5,321.5 Z"/></g>
<g><path style="opacity:0.004" fill="#000000" d="M 3721.5,321.5 C 3722.83,322.167 3722.83,322.167 3721.5,321.5 Z"/></g>
<g><path style="opacity:0.004" fill="#000000" d="M 1931.5,327.5 C 1932.83,328.167 1932.83,328.167 1931.5,327.5 Z"/></g>
<g><path style="opacity:0.004" fill="#000000" d="M 3097.5,327.5 C 3098.83,328.167 3098.83,328.167 3097.5,327.5 Z"/></g>
<g><path style="opacity:0.004" fill="#000000" d="M 1929.5,329.5 C 1930.83,330.167 1930.83,330.167 1929.5,329.5 Z"/></g>
<g><path style="opacity:0.004" fill="#000000" d="M 3095.5,329.5 C 3096.83,330.167 3096.83,330.167 3095.5,329.5 Z"/></g>
<g><path style="opacity:0.004" fill="#000000" d="M 1927.5,331.5 C 1928.83,332.167 1928.83,332.167 1927.5,331.5 Z"/></g>
<g><path style="opacity:0.004" fill="#000000" d="M 3093.5,331.5 C 3094.83,332.167 3094.83,332.167 3093.5,331.5 Z"/></g>
<g><path style="opacity:0.004" fill="#000000" d="M 3367.5,331.5 C 3368.83,332.167 3368.83,332.167 3367.5,331.5 Z"/></g>
<g><path style="opacity:0.004" fill="#000000" d="M 1693.5,333.5 C 1694.83,334.167 1694.83,334.167 1693.5,333.5 Z"/></g>
<g><path style="opacity:0.004" fill="#000000" d="M 1925.5,333.5 C 1926.83,334.167 1926.83,334.167 1925.5,333.5 Z"/></g>
<g><path style="opacity:0.004" fill="#000000" d="M 3091.5,333.5 C 3092.83,334.167 3092.83,334.167 3091.5,333.5 Z"/></g>
<g><path style="opacity:0.004" fill="#000000" d="M 3369.5,333.5 C 3370.83,334.167 3370.83,334.167 3369.5,333.5 Z"/></g>
<g><path style="opacity:0.004" fill="#000000" d="M 3561.5,337.5 C 3562.83,338.167 3562.83,338.167 3561.5,337.5 Z"/></g>
<g><path style="opacity:0.004" fill="#000000" d="M 1371.5,341.5 C 1372.83,342.167 1372.83,342.167 1371.5,341.5 Z"/></g>
<g><path style="opacity:0.004" fill="#000000" d="M 1701.5,343.5 C 1702.83,344.167 1702.83,344.167 1701.5,343.5 Z"/></g>
<g><path style="opacity:0.004" fill="#000000" d="M 3565.5,343.5 C 3566.83,344.167 3566.83,344.167 3565.5,343.5 Z"/></g>
<g><path style="opacity:0.004" fill="#000000" d="M 1705.5,349.5 C 1706.83,350.167 1706.83,350.167 1705.5,349.5 Z"/></g>
<g><path style="opacity:0.004" fill="#000000" d="M 3891.5,349.5 C 3892.83,350.167 3892.83,350.167 3891.5,349.5 Z"/></g>
<g><path style="opacity:0.004" fill="#000000" d="M 3077.5,351.5 C 3078.83,352.167 3078.83,352.167 3077.5,351.5 Z"/></g>
<g><path style="opacity:0.004" fill="#000000" d="M 3765.5,353.5 C 3766.83,354.167 3766.83,354.167 3765.5,353.5 Z"/></g>
<g><path style="opacity:0.004" fill="#000000" d="M 3743.5,355.5 C 3744.83,356.167 3744.83,356.167 3743.5,355.5 Z"/></g>
<g><path style="opacity:0.004" fill="#000000" d="M 1357.5,361.5 C 1358.83,362.167 1358.83,362.167 1357.5,361.5 Z"/></g>
<g><path style="opacity:0.004" fill="#000000" d="M 1903.5,363.5 C 1904.83,364.167 1904.83,364.167 1903.5,363.5 Z"/></g>
<g><path style="opacity:0.998" fill="#0aaeaa" d="M 329.5,363.5 C 330.552,363.351 331.552,363.517 332.5,364C 340.793,378.085 348.96,392.252 357,406.5C 357.495,408.473 357.662,410.473 357.5,412.5C 262.915,482.408 168.582,552.741 74.5,623.5C 73.6667,623.833 72.8333,624.167 72,624.5C 48.1373,612.462 24.6373,599.796 1.5,586.5C 1.82124,584.952 2.82124,584.285 4.5,584.5C 4.2965,582.61 4.96317,581.11 6.5,580C 34.7703,562.06 62.7703,543.727 90.5,525C 92.7917,522.884 94.7917,520.718 96.5,518.5C 173.722,466.908 251.389,415.241 329.5,363.5 Z"/></g>
<g><path style="opacity:0.004" fill="#000000" d="M 3587.5,377.5 C 3588.83,378.167 3588.83,378.167 3587.5,377.5 Z"/></g>
<g><path style="opacity:0.004" fill="#000000" d="M 3591.5,383.5 C 3592.83,384.167 3592.83,384.167 3591.5,383.5 Z"/></g>
<g><path style="opacity:0.004" fill="#000000" d="M 3869.5,383.5 C 3870.83,384.167 3870.83,384.167 3869.5,383.5 Z"/></g>
<g><path style="opacity:0.004" fill="#000000" d="M 3851.5,411.5 C 3852.83,412.167 3852.83,412.167 3851.5,411.5 Z"/></g>
<g><path style="opacity:0.004" fill="#000000" d="M 3613.5,417.5 C 3614.83,418.167 3614.83,418.167 3613.5,417.5 Z"/></g>
<g><path style="opacity:0.004" fill="#000000" d="M 3617.5,423.5 C 3618.83,424.167 3618.83,424.167 3617.5,423.5 Z"/></g>
<g><path style="opacity:0.004" fill="#000000" d="M 3829.5,445.5 C 3830.83,446.167 3830.83,446.167 3829.5,445.5 Z"/></g>
<g><path style="opacity:0.004" fill="#000000" d="M 3639.5,457.5 C 3640.83,458.167 3640.83,458.167 3639.5,457.5 Z"/></g>
<g><path style="opacity:0.004" fill="#000000" d="M 3643.5,463.5 C 3644.83,464.167 3644.83,464.167 3643.5,463.5 Z"/></g>
<g><path style="opacity:0.004" fill="#000000" d="M 3631.5,483.5 C 3632.83,484.167 3632.83,484.167 3631.5,483.5 Z"/></g>
<g><path style="opacity:0.004" fill="#000000" d="M 3831.5,493.5 C 3832.83,494.167 3832.83,494.167 3831.5,493.5 Z"/></g>
<g><path style="opacity:0.004" fill="#000000" d="M 3621.5,499.5 C 3622.83,500.167 3622.83,500.167 3621.5,499.5 Z"/></g>
<g><path style="opacity:0.004" fill="#000000" d="M 3835.5,499.5 C 3836.83,500.167 3836.83,500.167 3835.5,499.5 Z"/></g>
<g><path style="opacity:0.004" fill="#000000" d="M 3597.5,537.5 C 3598.83,538.167 3598.83,538.167 3597.5,537.5 Z"/></g>
<g><path style="opacity:0.004" fill="#000000" d="M 3385.5,547.5 C 3386.83,548.167 3386.83,548.167 3385.5,547.5 Z"/></g>
<g><path style="opacity:0.004" fill="#000000" d="M 3393.5,547.5 C 3394.83,548.167 3394.83,548.167 3393.5,547.5 Z"/></g>
<g><path style="opacity:0.004" fill="#000000" d="M 3873.5,557.5 C 3874.83,558.167 3874.83,558.167 3873.5,557.5 Z"/></g>
<g><path style="opacity:0.004" fill="#000000" d="M 3877.5,563.5 C 3878.83,564.167 3878.83,564.167 3877.5,563.5 Z"/></g>
<g><path style="opacity:0.004" fill="#000000" d="M 3217.5,573.5 C 3218.83,574.167 3218.83,574.167 3217.5,573.5 Z"/></g>
<g><path style="opacity:0.004" fill="#000000" d="M 3573.5,575.5 C 3574.83,576.167 3574.83,576.167 3573.5,575.5 Z"/></g>
<g><path style="opacity:0.004" fill="#000000" d="M 3695.5,577.5 C 3696.83,578.167 3696.83,578.167 3695.5,577.5 Z"/></g>
<g><path style="opacity:0.004" fill="#000000" d="M 813.5,593.5 C 814.833,594.167 814.833,594.167 813.5,593.5 Z"/></g>
<g><path style="opacity:0.004" fill="#000000" d="M 815.5,595.5 C 816.833,596.167 816.833,596.167 815.5,595.5 Z"/></g>
<g><path style="opacity:0.004" fill="#000000" d="M 1705.5,595.5 C 1706.83,596.167 1706.83,596.167 1705.5,595.5 Z"/></g>
<g><path style="opacity:0.004" fill="#000000" d="M 1909.5,599.5 C 1910.83,600.167 1910.83,600.167 1909.5,599.5 Z"/></g>
<g><path style="opacity:0.004" fill="#000000" d="M 3681.5,599.5 C 3682.83,600.167 3682.83,600.167 3681.5,599.5 Z"/></g>
<g><path style="opacity:0.004" fill="#000000" d="M 3731.5,599.5 C 3732.83,600.167 3732.83,600.167 3731.5,599.5 Z"/></g>
<g><path style="opacity:0.004" fill="#000000" d="M 1701.5,601.5 C 1702.83,602.167 1702.83,602.167 1701.5,601.5 Z"/></g>
<g><path style="opacity:0.004" fill="#000000" d="M 1915.5,607.5 C 1916.83,608.167 1916.83,608.167 1915.5,607.5 Z"/></g>
<g><path style="opacity:0.004" fill="#000000" d="M 3083.5,607.5 C 3084.83,608.167 3084.83,608.167 3083.5,607.5 Z"/></g>
<g><path style="opacity:0.004" fill="#000000" d="M 1695.5,609.5 C 1696.83,610.167 1696.83,610.167 1695.5,609.5 Z"/></g>
<g><path style="opacity:0.004" fill="#000000" d="M 833.5,613.5 C 834.833,614.167 834.833,614.167 833.5,613.5 Z"/></g>
<g><path style="opacity:0.004" fill="#000000" d="M 1373.5,613.5 C 1374.83,614.167 1374.83,614.167 1373.5,613.5 Z"/></g>
<g><path style="opacity:0.004" fill="#000000" d="M 2239.5,613.5 C 2240.83,614.167 2240.83,614.167 2239.5,613.5 Z"/></g>
<g><path style="opacity:0.004" fill="#000000" d="M 3549.5,613.5 C 3550.83,614.167 3550.83,614.167 3549.5,613.5 Z"/></g>
<g><path style="opacity:0.004" fill="#000000" d="M 835.5,615.5 C 836.833,616.167 836.833,616.167 835.5,615.5 Z"/></g>
<g><path style="opacity:0.004" fill="#000000" d="M 1375.5,615.5 C 1376.83,616.167 1376.83,616.167 1375.5,615.5 Z"/></g>
<g><path style="opacity:0.004" fill="#000000" d="M 2237.5,615.5 C 2238.83,616.167 2238.83,616.167 2237.5,615.5 Z"/></g>
<g><path style="opacity:0.004" fill="#000000" d="M 3741.5,615.5 C 3742.83,616.167 3742.83,616.167 3741.5,615.5 Z"/></g>
<g><path style="opacity:0.004" fill="#000000" d="M 2235.5,617.5 C 2236.83,618.167 2236.83,618.167 2235.5,617.5 Z"/></g>
<g><path style="opacity:0.004" fill="#000000" d="M 2233.5,619.5 C 2234.83,620.167 2234.83,620.167 2233.5,619.5 Z"/></g>
<g><path style="opacity:0.004" fill="#000000" d="M 1381.5,621.5 C 1382.83,622.167 1382.83,622.167 1381.5,621.5 Z"/></g>
<g><path style="opacity:0.004" fill="#000000" d="M 2231.5,621.5 C 2232.83,622.167 2232.83,622.167 2231.5,621.5 Z"/></g>
<g><path style="opacity:0.004" fill="#000000" d="M 3667.5,621.5 C 3668.83,622.167 3668.83,622.167 3667.5,621.5 Z"/></g>
<g><path style="opacity:0.004" fill="#000000" d="M 3915.5,621.5 C 3916.83,622.167 3916.83,622.167 3915.5,621.5 Z"/></g>
<g><path style="opacity:0.004" fill="#000000" d="M 1383.5,623.5 C 1384.83,624.167 1384.83,624.167 1383.5,623.5 Z"/></g>
<g><path style="opacity:0.004" fill="#000000" d="M 2229.5,623.5 C 2230.83,624.167 2230.83,624.167 2229.5,623.5 Z"/></g>
<g><path style="opacity:0.004" fill="#000000" d="M 1385.5,625.5 C 1386.83,626.167 1386.83,626.167 1385.5,625.5 Z"/></g>
<g><path style="opacity:0.004" fill="#000000" d="M 2227.5,625.5 C 2228.83,626.167 2228.83,626.167 2227.5,625.5 Z"/></g>
<g><path style="opacity:0.004" fill="#000000" d="M 3919.5,627.5 C 3920.83,628.167 3920.83,628.167 3919.5,627.5 Z"/></g>
<g><path style="opacity:0.004" fill="#000000" d="M 1675.5,629.5 C 1676.83,630.167 1676.83,630.167 1675.5,629.5 Z"/></g>
<g><path style="opacity:0.004" fill="#000000" d="M 1937.5,629.5 C 1938.83,630.167 1938.83,630.167 1937.5,629.5 Z"/></g>
<g><path style="opacity:0.004" fill="#000000" d="M 3539.5,629.5 C 3540.83,630.167 3540.83,630.167 3539.5,629.5 Z"/></g>
<g><path style="opacity:0.004" fill="#000000" d="M 3107.5,631.5 C 3108.83,632.167 3108.83,632.167 3107.5,631.5 Z"/></g>
<g><path style="opacity:0.004" fill="#000000" d="M 3751.5,631.5 C 3752.83,632.167 3752.83,632.167 3751.5,631.5 Z"/></g>
<g><path style="opacity:0.004" fill="#000000" d="M 2217.5,633.5 C 2218.83,634.167 2218.83,634.167 2217.5,633.5 Z"/></g>
<g><path style="opacity:0.004" fill="#000000" d="M 3923.5,633.5 C 3924.83,634.167 3924.83,634.167 3923.5,633.5 Z"/></g>
<g><path style="opacity:0.004" fill="#000000" d="M 1667.5,635.5 C 1668.83,636.167 1668.83,636.167 1667.5,635.5 Z"/></g>
<g><path style="opacity:0.004" fill="#000000" d="M 2211.5,637.5 C 2212.83,638.167 2212.83,638.167 2211.5,637.5 Z"/></g>
<g><path style="opacity:0.004" fill="#000000" d="M 3649.5,649.5 C 3650.83,650.167 3650.83,650.167 3649.5,649.5 Z"/></g>
<g><path style="opacity:1" fill="#0dcec1" d="M 519.5,549.5 C 523.478,601.968 526.478,654.635 528.5,707.5C 527.5,707.5 526.5,707.5 525.5,707.5C 525.5,706.833 525.5,706.167 525.5,705.5C 526.156,704.378 526.489,703.045 526.5,701.5C 524.205,650.831 521.871,600.164 519.5,549.5 Z"/></g>
</svg>
