<?xml version="1.0" encoding="UTF-8"?>
<!DOCTYPE svg PUBLIC "-//W3C//DTD SVG 1.1//EN" "http://www.w3.org/Graphics/SVG/1.1/DTD/svg11.dtd">
<svg xmlns="http://www.w3.org/2000/svg" version="1.1" width="512px" height="512px" style="shape-rendering:geometricPrecision; text-rendering:geometricPrecision; image-rendering:optimizeQuality; fill-rule:evenodd; clip-rule:evenodd" xmlns:xlink="http://www.w3.org/1999/xlink">
<g><path style="opacity:0.996" fill="#09d1c7" d="M 194.5,5.5 C 194.083,9.83458 193.583,14.1679 193,18.5C 189.208,32.0166 185.875,45.6833 183,59.5C 182.501,63.4862 182.334,67.4862 182.5,71.5C 165.766,150.165 148.766,228.831 131.5,307.5C 130.524,308.815 129.524,310.148 128.5,311.5C 110.124,323.349 92.1239,335.682 74.5,348.5C 73.9033,348.265 73.5699,347.765 73.5,347C 97.939,233.307 121.939,119.474 145.5,5.5C 161.833,5.5 178.167,5.5 194.5,5.5 Z"/></g>
<g><path style="opacity:0.995" fill="#0ef9ea" d="M 194.5,5.5 C 195.496,5.41423 196.329,5.74756 197,6.5C 232.79,68.4239 268.29,130.424 303.5,192.5C 308.056,201.274 312.889,209.94 318,218.5C 318.671,219.252 319.504,219.586 320.5,219.5C 338.442,251.43 356.775,283.097 375.5,314.5C 375.5,314.833 375.5,315.167 375.5,315.5C 375.5,316.167 375.833,316.5 376.5,316.5C 378.068,322.36 378.902,328.36 379,334.5C 379.695,359.523 380.862,384.523 382.5,409.5C 382.465,413.249 382.131,416.916 381.5,420.5C 348.584,363.004 315.917,305.337 283.5,247.5C 283.657,246.127 283.49,244.793 283,243.5C 278.413,235.996 274.08,228.329 270,220.5C 268.729,219.117 267.229,218.117 265.5,217.5C 237.818,168.798 210.151,120.131 182.5,71.5C 182.334,67.4862 182.501,63.4862 183,59.5C 185.875,45.6833 189.208,32.0166 193,18.5C 193.583,14.1679 194.083,9.83458 194.5,5.5 Z"/></g>
<g><path style="opacity:0.992" fill="#09aea9" d="M 411.5,149.5 C 398.434,158.707 385.434,168.207 372.5,178C 370.859,179.129 369.859,180.629 369.5,182.5C 352.859,194.48 336.526,206.814 320.5,219.5C 319.504,219.586 318.671,219.252 318,218.5C 312.889,209.94 308.056,201.274 303.5,192.5C 325.138,178.01 346.805,163.51 368.5,149C 383.006,148.173 397.339,148.339 411.5,149.5 Z"/></g>
<g><path style="opacity:0.995" fill="#097c72" d="M 411.5,149.5 C 415.075,232.283 418.742,315.283 422.5,398.5C 420.692,398.491 419.025,398.991 417.5,400C 405.933,407.616 393.933,414.449 381.5,420.5C 382.131,416.916 382.465,413.249 382.5,409.5C 380.862,384.523 379.695,359.523 379,334.5C 378.902,328.36 378.068,322.36 376.5,316.5C 375.833,316.5 375.5,316.167 375.5,315.5C 375.5,315.167 375.5,314.833 375.5,314.5C 373.611,270.495 371.611,226.495 369.5,182.5C 369.859,180.629 370.859,179.129 372.5,178C 385.434,168.207 398.434,158.707 411.5,149.5 Z"/></g>
<g><path style="opacity:0.994" fill="#09afaa" d="M 265.5,217.5 C 267.229,218.117 268.729,219.117 270,220.5C 274.08,228.329 278.413,235.996 283,243.5C 283.49,244.793 283.657,246.127 283.5,247.5C 227.358,288.084 171.691,329.417 116.5,371.5C 102.438,363.805 88.438,356.139 74.5,348.5C 92.1239,335.682 110.124,323.349 128.5,311.5C 129.524,310.148 130.524,308.815 131.5,307.5C 176.462,277.859 221.129,247.859 265.5,217.5 Z"/></g>
<g><path style="opacity:0.848" fill="#343434" d="M 87.5,433.5 C 94.9582,433.903 102.292,435.069 109.5,437C 111.542,441.667 112.709,446.501 113,451.5C 112.586,451.957 112.086,452.291 111.5,452.5C 102.248,446.028 92.7478,445.361 83,450.5C 78.3658,463.808 78.3658,477.141 83,490.5C 87.1355,494.191 91.9688,495.358 97.5,494C 101.965,493.434 105.965,491.767 109.5,489C 110.944,488.219 112.277,488.386 113.5,489.5C 112.622,493.809 111.788,498.142 111,502.5C 109.352,503.717 107.519,504.55 105.5,505C 74.513,512.805 58.8463,500.972 58.5,469.5C 57.2901,448.404 66.9568,436.404 87.5,433.5 Z"/></g>
<g><path style="opacity:0.858" fill="#343434" d="M 262.5,434.5 C 268.758,434.19 274.924,434.524 281,435.5C 281.5,444.827 281.666,454.161 281.5,463.5C 287.833,463.5 294.167,463.5 300.5,463.5C 300.334,454.161 300.5,444.827 301,435.5C 307.418,434.357 313.918,434.19 320.5,435C 319.506,458.425 319.173,481.925 319.5,505.5C 313.167,505.5 306.833,505.5 300.5,505.5C 300.5,495.5 300.5,485.5 300.5,475.5C 294.167,475.5 287.833,475.5 281.5,475.5C 281.5,485.5 281.5,495.5 281.5,505.5C 275.167,505.5 268.833,505.5 262.5,505.5C 262.5,481.833 262.5,458.167 262.5,434.5 Z"/></g>
<g><path style="opacity:0.853" fill="#343434" d="M 174.5,462.5 C 179.83,474.48 179.83,486.48 174.5,498.5C 168.785,504.897 161.618,507.231 153,505.5C 144.524,507.276 137.69,504.943 132.5,498.5C 125.37,485.289 126.037,472.456 134.5,460C 148.555,450.761 161.888,451.595 174.5,462.5 Z M 149.5,464.5 C 154.644,463.198 158.144,464.865 160,469.5C 161.946,477.16 161.946,484.827 160,492.5C 155.667,497.833 151.333,497.833 147,492.5C 145.645,486.215 145.311,479.882 146,473.5C 146.117,470.037 147.284,467.037 149.5,464.5 Z"/></g>
<g><path style="opacity:0.861" fill="#343434" d="M 200.5,501.5 C 192.32,489.356 191.487,476.689 198,463.5C 206.667,454.228 217.167,451.395 229.5,455C 240.4,459.617 245.4,467.951 244.5,480C 245.394,491.218 241.06,499.551 231.5,505C 223.167,505.667 214.833,505.667 206.5,505C 204.612,503.606 202.612,502.44 200.5,501.5 Z M 215.5,464.5 C 221.707,463.008 225.207,465.342 226,471.5C 226.848,478.899 226.515,486.233 225,493.5C 221,497.5 217,497.5 213,493.5C 211.044,484.827 211.044,476.16 213,467.5C 214.045,466.627 214.878,465.627 215.5,464.5 Z"/></g>
<g><path style="opacity:0.828" fill="#343434" d="M 384.5,484.5 C 374.81,484.168 365.144,484.502 355.5,485.5C 356.648,495.246 361.981,498.746 371.5,496C 375.295,495.186 378.795,493.686 382,491.5C 382.925,492.047 383.758,492.713 384.5,493.5C 383.103,495.982 382.269,498.648 382,501.5C 381.5,503.333 380.333,504.5 378.5,505C 346.044,512.209 333.211,499.709 340,467.5C 341.271,464.617 342.771,461.95 344.5,459.5C 356.013,451.773 367.68,451.607 379.5,459C 385.325,466.623 386.992,475.123 384.5,484.5 Z M 362.5,463.5 C 369.664,463.665 372.997,467.331 372.5,474.5C 366.833,474.5 361.167,474.5 355.5,474.5C 354.759,468.58 357.092,464.913 362.5,463.5 Z"/></g>
<g><path style="opacity:0.854" fill="#343434" d="M 426.5,462.5 C 426.461,463.756 426.961,464.756 428,465.5C 429.046,463.91 430.213,462.41 431.5,461C 431.167,460.667 430.833,460.333 430.5,460C 432.605,458.807 434.272,457.14 435.5,455C 440.02,454.072 444.354,454.405 448.5,456C 443.638,462.696 438.971,469.53 434.5,476.5C 439.667,484.833 444.833,493.167 450,501.5C 450.49,502.793 450.657,504.127 450.5,505.5C 444.132,505.83 437.798,505.496 431.5,504.5C 429.316,500.119 426.65,496.119 423.5,492.5C 420.377,496.578 417.377,500.745 414.5,505C 409.649,505.934 404.983,505.601 400.5,504C 406.42,496.578 411.753,488.744 416.5,480.5C 410.953,472.062 405.953,463.395 401.5,454.5C 408.2,454.17 414.866,454.503 421.5,455.5C 422.836,458.154 424.503,460.487 426.5,462.5 Z"/></g>
<g><path style="opacity:0.004" fill="#000000" d="M 344.5,459.5 C 343.833,458.167 343.833,458.167 344.5,459.5 Z"/></g>
<g><path style="opacity:0.004" fill="#000000" d="M 174.5,461.5 C 175.833,462.167 175.833,462.167 174.5,461.5 Z"/></g>
<g><path style="opacity:0.004" fill="#000000" d="M 426.5,461.5 C 427.833,462.167 427.833,462.167 426.5,461.5 Z"/></g>
<g><path style="opacity:0.004" fill="#000000" d="M 405.5,466.5 C 406.833,467.167 406.833,467.167 405.5,466.5 Z"/></g>
<g><path style="opacity:0.004" fill="#000000" d="M 437.5,474.5 C 438.833,475.167 438.833,475.167 437.5,474.5 Z"/></g>
<g><path style="opacity:0.004" fill="#000000" d="M 384.5,484.5 C 385.833,485.167 385.833,485.167 384.5,484.5 Z"/></g>
<g><path style="opacity:0.004" fill="#000000" d="M 446.5,493.5 C 447.833,494.167 447.833,494.167 446.5,493.5 Z"/></g>
<g><path style="opacity:0.004" fill="#000000" d="M 132.5,498.5 C 131.833,499.167 131.833,499.167 132.5,498.5 Z"/></g>
<g><path style="opacity:0.004" fill="#000000" d="M 174.5,498.5 C 175.833,499.167 175.833,499.167 174.5,498.5 Z"/></g>
<g><path style="opacity:0.004" fill="#000000" d="M 200.5,501.5 C 199.833,502.167 199.833,502.167 200.5,501.5 Z"/></g>
</svg>
